<?xml version="1.0" standalone="no"?>
<!DOCTYPE svg PUBLIC "-//W3C//DTD SVG 20010904//EN"
 "http://www.w3.org/TR/2001/REC-SVG-20010904/DTD/svg10.dtd">
<svg version="1.0" xmlns="http://www.w3.org/2000/svg"
 width="400.000000pt" height="400.000000pt" viewBox="0 0 400.000000 400.000000"
 preserveAspectRatio="xMidYMid meet">

<g transform="translate(0.000000,400.000000) scale(0.100000,-0.100000)"
fill="#000000" stroke="none">
<path d="M3300 2547 c0 -5 48 -155 106 -333 l107 -325 65 3 66 3 103 310 c57
171 106 318 109 328 5 15 -3 17 -69 17 -63 0 -75 -3 -80 -17 -41 -145 -118
-397 -125 -409 -6 -11 -18 16 -42 98 -18 62 -46 155 -61 207 -16 51 -29 99
-29 106 0 10 -22 14 -75 17 -41 2 -75 -1 -75 -5z"/>
<path d="M535 2483 c-77 -191 -395 -1026 -392 -1029 1 -2 247 91 546 206 299
116 545 210 547 210 2 0 4 153 4 340 l0 340 -339 0 -339 0 -27 -67z m635 -281
l0 -287 -448 -173 c-246 -94 -453 -172 -460 -172 -9 0 -10 5 -3 18 5 9 46 114
91 232 45 118 118 307 162 420 44 113 84 215 89 228 l9 22 280 0 280 0 0 -288z"/>
<path d="M1675 2533 c-45 -23 -65 -44 -87 -88 -28 -53 -28 -128 -1 -180 43
-82 93 -105 228 -105 94 0 97 -1 126 -30 32 -32 33 -57 1 -92 -13 -16 -35 -18
-179 -18 l-163 0 0 -65 0 -65 168 0 c141 0 173 3 207 19 47 22 89 64 104 104
24 63 6 163 -37 210 -37 42 -93 60 -192 63 -52 1 -101 3 -107 3 -22 1 -53 40
-53 65 0 13 9 34 19 47 19 24 23 24 188 24 l168 0 3 63 3 62 -183 0 c-147 -1
-189 -4 -213 -17z"/>
<path d="M2190 2220 l0 -330 225 0 225 0 0 65 0 65 -160 0 -160 0 0 70 0 70
110 0 111 0 -3 63 -3 62 -107 3 -108 3 0 70 0 71 160 -6 160 -5 0 64 0 65
-225 0 -225 0 0 -330z"/>
<path d="M2741 2283 c2 -148 5 -296 7 -330 l4 -63 59 0 59 0 0 64 0 64 98 4
c152 7 237 55 282 161 57 131 4 279 -122 341 -50 25 -59 26 -220 26 l-169 0 2
-267z m337 123 c47 -25 77 -92 63 -143 -23 -86 -69 -113 -190 -113 l-81 0 0
133 c0 74 3 137 8 141 13 14 165 0 200 -18z"/>
</g>
</svg>
